# xmcd
#
# Track frame offsets: 
#        150
#        13031
#        29933
#        51276
#        62914
#        72790
#        93496
#        108656
#        123101
#        138424
#        154949
#        166019
#
# Disc length: 2415 seconds
#
# Revision: 0
# Processed by: cddbd v1.5.2PL0 Copyright (c) Steve Scherf et al.
# Submitted via: ExactAudioCopy v1.0b1
#
DISCID=a7096d0c
DTITLE=Adam Lee and The Dead Horse Sound Company - When the Spirits Move
DTITLE=Me
DYEAR=2010
DGENRE=Country
TTITLE0=Drinking, Cheating, Loving, and Leaving
TTITLE1=When the Spirits Move Me
TTITLE2=Holly Roller
TTITLE3=Whiskey for Breakfast
TTITLE4=Thank the Booze
TTITLE5=Misery to Ruin
TTITLE6=Lonley, Broke and Busted
TTITLE7=Liquor's a Prison
TTITLE8=Never Have to Choose
TTITLE9=Wishful Drinking (with Abigail Henderson)
TTITLE10=Nashville
TTITLE11=Broken Wings
EXTD=
EXTT0=
EXTT1=
EXTT2=
EXTT3=
EXTT4=
EXTT5=
EXTT6=
EXTT7=
EXTT8=
EXTT9=
EXTT10=
EXTT11=
PLAYORDER=
